<?xml version="1.0" encoding="UTF-8"?>
<!DOCTYPE svg PUBLIC "-//W3C//DTD SVG 1.1//EN" "http://www.w3.org/Graphics/SVG/1.1/DTD/svg11.dtd">
<!-- Creator: CorelDRAW X7 -->
<svg xmlns="http://www.w3.org/2000/svg" xml:space="preserve" width="2in" height="2in" version="1.1" style="shape-rendering:geometricPrecision; text-rendering:geometricPrecision; image-rendering:optimizeQuality; fill-rule:evenodd; clip-rule:evenodd"
viewBox="0 0 2000 2000"
 xmlns:xlink="http://www.w3.org/1999/xlink">
 <defs>
  <style type="text/css">
   <![CDATA[
    .fil1 {fill:#fff}
    .fil0 {fill:#FBB434}
    .fil2 {fill:#fff;fill-rule:nonzero}
    .fil3 {fill:#3274d6;fill-rule:nonzero}
   ]]>
  </style>
 </defs>
 <g id="Layer_x0020_1">
  <metadata id="CorelCorpID_0Corel-Layer"/>
  <g id="_1970069672688">
   <path class="fil0" d="M400 515c48,0 96,0 145,0 -66,141 -132,281 -198,422 54,1 109,-2 163,2 -25,36 -51,71 -75,108 -89,-1 -178,0 -267,-1 77,-177 155,-353 232,-531z"/>
   <path class="fil0" d="M227 1345c31,-87 62,-174 93,-261 34,0 67,1 101,0 -36,50 -74,99 -110,148 -28,38 -56,76 -84,113z"/>
   <path class="fil1" d="M259 637c12,-4 25,-7 38,-10 -17,38 -33,77 -51,115 -18,14 -40,25 -56,41 -64,55 -100,139 -96,223 2,88 50,172 122,222 -11,30 -22,61 -33,91 -65,-40 -118,-98 -149,-167 -45,-98 -45,-215 0,-313 9,-20 20,-40 33,-59 46,-66 114,-117 192,-143z"/>
   <path class="fil1" d="M535 653c14,7 27,14 40,21 35,22 67,50 94,83 28,34 49,73 64,114 19,56 25,117 17,175 -87,0 -174,0 -262,0 26,-36 52,-73 77,-109 30,0 59,0 89,0 -15,-70 -56,-133 -114,-173 -14,-10 -29,-18 -44,-26 13,-28 26,-57 39,-85z"/>
   <path class="fil1" d="M597 1173c38,0 75,0 112,0 -25,47 -61,90 -104,122 -91,71 -215,94 -326,65 15,-20 29,-40 44,-60 6,-8 12,-16 18,-24 96,13 196,-27 256,-103z"/>
   <path class="fil2" d="M1063 1224c24,-8 49,-30 49,-70 0,-43 -36,-65 -96,-65l-184 0 -72 72 246 0c11,0 21,4 21,15 0,16 -13,22 -27,22l-246 0 -30 169 244 0c106,0 129,-47 129,-93 0,-27 -14,-44 -34,-50zm-75 33c16,0 24,5 24,16 0,14 -10,22 -31,22l-158 0 7 -38 158 0z"/>
   <path id="1" class="fil2" d="M1291 1114c-7,-19 -20,-30 -42,-30 -21,0 -43,13 -55,38l-115 245 84 0 44 -97c12,-30 24,-56 32,-77 5,19 12,39 25,77l25 70c10,28 24,31 44,31 21,0 36,-3 55,-31l50 -70c25,-36 40,-57 52,-77 1,23 2,45 5,77l10 97 86 0 -28 -245c-3,-25 -19,-38 -41,-38 -23,0 -39,12 -52,30l-59 79c-32,42 -47,63 -59,82 -6,-18 -16,-45 -30,-83l-31 -78z"/>
   <path id="2" class="fil2" d="M1732 1200c-17,0 -26,-5 -26,-16 0,-17 10,-23 33,-23l193 0 68 -72 -241 0c-98,0 -136,42 -136,99 0,40 28,67 91,67l152 0c17,0 26,5 26,17 0,16 -10,23 -33,23l-211 0 -68 72 259 0c99,0 137,-44 137,-104 0,-42 -32,-63 -92,-63l-152 0z"/>
   <polygon class="fil3" points="16,1472 17,1466 45,1466 55,1456 19,1456 20,1450 50,1450 61,1438 8,1438 0,1484 44,1484 55,1472 "/>
   <polygon id="1" class="fil3" points="74,1472 80,1438 66,1438 58,1484 98,1484 109,1472 "/>
   <polygon id="2" class="fil3" points="128,1472 129,1466 158,1466 167,1456 131,1456 132,1450 162,1450 173,1438 120,1438 112,1484 156,1484 167,1472 "/>
   <path id="3" class="fil3" d="M198 1472c-7,0 -12,-3 -12,-9 0,-7 8,-13 16,-13l23 0 11 -12 -32 0c-17,0 -32,11 -32,26 0,11 10,20 24,20l23 0 11 -12 -32 0z"/>
   <polygon id="4" class="fil3" points="246,1438 235,1450 256,1450 250,1484 264,1484 270,1450 286,1450 298,1438 "/>
   <path id="5" class="fil3" d="M352 1475c-3,-3 -4,-5 -5,-6 8,-2 14,-9 14,-17 0,-11 -11,-14 -21,-14l-29 0 -11 12 39 0c5,0 7,2 7,5 0,3 -4,6 -8,6l-40 0 -4 23 14 0 2 -12 22 0 8 12 19 0 -7 -9z"/>
   <polygon id="6" class="fil3" points="386,1438 372,1438 364,1484 378,1484 "/>
   <path id="7" class="fil3" d="M415 1472c-7,0 -12,-3 -12,-9 0,-7 8,-13 16,-13l23 0 11 -12 -32 0c-17,0 -32,11 -32,26 0,11 10,20 24,20l23 0 11 -12 -32 0z"/>
   <polygon id="8" class="fil3" points="472,1438 458,1438 450,1484 464,1484 "/>
   <polygon id="9" class="fil3" points="486,1438 475,1450 496,1450 490,1484 504,1484 510,1450 527,1450 538,1438 "/>
   <path id="10" class="fil3" d="M590 1438l-13 13c-4,4 -6,6 -7,7 -1,-1 -4,-5 -5,-7l-9 -13 -18 0 23 31 -3 15 14 0 3 -15 32 -31 -17 0z"/>
   <path id="11" class="fil3" d="M686 1461c4,-2 8,-5 8,-12 0,-7 -6,-11 -16,-11l-30 0 -12 12 41 0c1,0 3,1 3,3 0,2 -2,3 -4,3l-41 0 -5 28 40 0c18,0 22,-8 22,-15 0,-5 -3,-7 -6,-8zm-12 5c2,0 4,1 4,3 0,2 -2,3 -5,3l-26 0 1 -6 26 0z"/>
   <polygon id="12" class="fil3" points="719,1438 704,1438 696,1484 710,1484 "/>
   <polygon id="13" class="fil3" points="735,1472 741,1438 727,1438 719,1484 760,1484 771,1472 "/>
   <polygon id="14" class="fil3" points="790,1472 796,1438 782,1438 773,1484 814,1484 825,1472 "/>
   <path id="15" class="fil3" d="M885 1442c-1,-3 -3,-4 -7,-4 -3,0 -7,2 -9,6l-18 40 13 0 7 -16c3,-5 4,-9 6,-12 1,3 2,6 4,12l4 12c2,4 4,5 7,5 4,0 6,-1 9,-5l8 -12c5,-6 7,-9 9,-12 0,3 0,7 1,12l1 16 15 0 -5 -40c0,-4 -3,-6 -7,-6 -3,0 -6,2 -8,4l-10 13c-5,7 -8,11 -10,14 -1,-3 -2,-7 -5,-14l-5 -13z"/>
   <path id="16" class="fil3" d="M1012 1484l-21 -41c-2,-3 -4,-5 -8,-5 -5,0 -8,2 -10,5l-37 41 17 0 27 -30 6 12c1,2 2,5 3,6 -2,0 -5,0 -8,0l-11 0 -11 12 53 0z"/>
   <path id="17" class="fil3" d="M1063 1485c4,0 8,-3 10,-9l6 -38 -13 0 -4 27 -24 -25c-2,-2 -3,-2 -5,-2 -4,0 -8,2 -9,8l-7 38 13 0 5 -27 23 25c2,2 3,3 5,3z"/>
   <path id="18" class="fil3" d="M1152 1484l-21 -41c-2,-3 -4,-5 -8,-5 -5,0 -8,2 -10,5l-37 41 17 0 26 -30 7 12c1,2 2,5 3,6 -2,0 -5,0 -8,0l-11 0 -11 12 53 0z"/>
   <path id="19" class="fil3" d="M1180 1466l24 0 -2 6 -17 0c-7,0 -12,-3 -12,-9 0,-7 8,-13 16,-13l24 0 11 -12 -33 0c-17,0 -32,11 -32,26 0,11 10,20 24,20l31 0 5 -28 -29 0 -10 10z"/>
   <polygon id="20" class="fil3" points="1239,1472 1240,1466 1268,1466 1278,1456 1242,1456 1243,1450 1272,1450 1283,1438 1231,1438 1223,1484 1266,1484 1278,1472 "/>
   <path id="21" class="fil3" d="M1312 1442c-1,-3 -3,-4 -7,-4 -3,0 -7,2 -9,6l-19 40 14 0 7 -16c2,-5 4,-9 5,-12 1,3 2,6 5,12l4 12c1,4 3,5 7,5 3,0 6,-1 9,-5l8 -12c4,-6 7,-9 9,-12 0,3 0,7 1,12l1 16 14 0 -4 -40c-1,-4 -4,-6 -7,-6 -4,0 -7,2 -9,4l-9 13c-6,7 -8,11 -10,14 -1,-3 -3,-7 -5,-14l-5 -13z"/>
   <polygon id="22" class="fil3" points="1383,1472 1384,1466 1412,1466 1422,1456 1386,1456 1386,1450 1416,1450 1427,1438 1374,1438 1366,1484 1410,1484 1421,1472 "/>
   <path id="23" class="fil3" d="M1470 1485c4,0 8,-3 10,-9l6 -38 -13 0 -4 27 -24 -25c-2,-2 -3,-2 -5,-2 -4,0 -8,2 -9,8l-7 38 13 0 5 -27 23 25c2,2 3,3 5,3z"/>
   <polygon id="24" class="fil3" points="1500,1438 1488,1450 1510,1450 1504,1484 1518,1484 1524,1450 1540,1450 1551,1438 "/>
   <path id="25" class="fil3" d="M1596 1457c-3,0 -4,-1 -4,-3 0,-3 1,-4 5,-4l32 0 11 -12 -40 0c-16,0 -22,7 -22,17 0,6 5,11 15,11l25 0c3,0 4,1 4,2 0,3 -1,4 -5,4l-35 0 -11 12 43 0c16,0 22,-7 22,-17 0,-7 -5,-10 -15,-10l-25 0z"/>
   <path id="26" class="fil3" d="M1695 1438l-12 13c-4,4 -6,6 -8,7 0,-1 -3,-5 -4,-7l-9 -13 -18 0 22 31 -2 15 14 0 2 -15 33 -31 -18 0z"/>
   <path id="27" class="fil3" d="M1732 1457c-3,0 -4,-1 -4,-3 0,-3 1,-4 5,-4l32 0 11 -12 -40 0c-16,0 -22,7 -22,17 0,6 5,11 15,11l25 0c3,0 4,1 4,2 0,3 -2,4 -5,4l-35 0 -11 12 42 0c17,0 23,-7 23,-17 0,-7 -5,-10 -15,-10l-25 0z"/>
   <polygon id="28" class="fil3" points="1788,1438 1777,1450 1798,1450 1792,1484 1807,1484 1813,1450 1829,1450 1840,1438 "/>
   <polygon id="29" class="fil3" points="1853,1472 1854,1466 1882,1466 1892,1456 1856,1456 1856,1450 1886,1450 1897,1438 1844,1438 1836,1484 1880,1484 1891,1472 "/>
   <path id="30" class="fil3" d="M1926 1442c-1,-3 -3,-4 -7,-4 -4,0 -7,2 -9,6l-19 40 14 0 7 -16c2,-5 4,-9 5,-12 1,3 2,6 4,12l4 12c2,4 4,5 8,5 3,0 6,-1 9,-5l8 -12c4,-6 6,-9 9,-12 0,3 0,7 0,12l2 16 14 0 -5 -40c0,-4 -3,-6 -6,-6 -4,0 -7,2 -9,4l-10 13c-5,7 -7,11 -9,14 -1,-3 -3,-7 -5,-14l-5 -13z"/>
  </g>
 </g>
</svg>
